<?xml version="1.0" encoding="UTF-8"?>
<svg width="24px" height="24px" viewBox="0 0 24 24" version="1.1" xmlns="http://www.w3.org/2000/svg" xmlns:xlink="http://www.w3.org/1999/xlink">
    <!-- Generator: Sketch 49 (51002) - http://www.bohemiancoding.com/sketch -->
    <title>logo 24px</title>
    <desc>Created with Sketch.</desc>
    <defs></defs>
    <g id="Symbols" stroke="none" stroke-width="1" fill="none" fill-rule="evenodd">
        <g id="HeaderBar-short" transform="translate(-22.000000, -15.000000)" fill="#FFFFFF">
            <g id="brand">
                <g transform="translate(22.000000, 15.000000)">
                    <g id="logo-24px">
                        <g id="Group">
                            <g>
                                <path d="M19.0384615,17.5912951 L23.5521399,13.0772811 C24.1095105,12.519407 24.1095105,11.6157986 23.5521399,11.0582601 L19.0384615,6.54508531 L17.0196084,8.56343497 L20.5241119,12.0677706 L17.0196084,15.5726098 L19.0384615,17.5912951 Z" id="Fill-150"></path>
                                <path d="M15.6060923,16.9858573 L12.0225399,20.5697455 L3.52083357,12.0677035 L12.0225399,3.5659972 L15.6060923,7.15022098 L17.6249455,5.1317035 L13.0315469,0.537969231 C12.4746797,-0.0197370629 11.5702322,-0.0197370629 11.0130294,0.537969231 L0.491966434,11.0583608 C0.224274126,11.3260531 0.0737286713,11.6890741 0.0737286713,12.0677035 C0.0737286713,12.446165 0.224274126,12.8096895 0.491966434,13.077214 L11.0130294,23.5981091 C11.2805538,23.8652979 11.6440783,24.016179 12.0225399,24.016179 C12.4008336,24.016179 12.7636867,23.8652979 13.0315469,23.5981091 L17.6249455,19.0047105 L15.6060923,16.9858573 Z" id="Fill-152"></path>
                            </g>
                        </g>
                    </g>
                </g>
            </g>
        </g>
    </g>
</svg>